HIERARCHY
ROOT Hips
{
  OFFSET 1.44925e-005 102.336 -0.101585
  CHANNELS 6 Xposition Yposition Zposition Zrotation Xrotation Yrotation
  JOINT LeftUpLeg
  {
    OFFSET 8.9458 -8.66707 0.101652
    CHANNELS 3 Zrotation Xrotation Yrotation
    JOINT LeftLeg
    {
      OFFSET 0 -44.4227 1.3727
      CHANNELS 3 Zrotation Xrotation Yrotation
      JOINT LeftFoot
      {
        OFFSET -0.253549 -42.0924 -1.46059
        CHANNELS 3 Zrotation Xrotation Yrotation
        JOINT LeftToes
        {
          OFFSET -0.04 -4.41509 8.4991
          CHANNELS 3 Zrotation Xrotation Yrotation
          End Site
          {
            OFFSET 0.08 -0.047448 9.77979
          }
        }
      }
    }
  }
  JOINT Spine
  {
    OFFSET 0 11.8905 0
    CHANNELS 3 Zrotation Xrotation Yrotation
    JOINT Spine1
    {
      OFFSET 0 25.6574 0.127663
      CHANNELS 3 Zrotation Xrotation Yrotation
      JOINT RightShoulder
      {
        OFFSET -8.99 -0.362252 -0.22
        CHANNELS 3 Zrotation Xrotation Yrotation
        JOINT RightArm
        {
          OFFSET -10.2827 -0.00338 0.322123
          CHANNELS 3 Zrotation Xrotation Yrotation
          JOINT RightForeArm
          {
            OFFSET -26.364 0.099144 -1.42434
            CHANNELS 3 Zrotation Xrotation Yrotation
            JOINT RightHand
            {
              OFFSET -22.0324 0.085362 1.02216
              CHANNELS 3 Zrotation Xrotation Yrotation
              End Site
              {
                OFFSET -13.3284 -0.6 1.50291
              }
            }
          }
        }
      }
      JOINT LeftShoulder1
      {
        OFFSET 8.99 -0.362252 -0.22
        CHANNELS 3 Zrotation Xrotation Yrotation
        JOINT LeftArm
        {
          OFFSET 10.2827 -0.00337999 0.322123
          CHANNELS 3 Zrotation Xrotation Yrotation
          JOINT LeftForeArm
          {
            OFFSET 26.2597 0.099144 -1.42434
            CHANNELS 3 Zrotation Xrotation Yrotation
            JOINT LeftHand
            {
              OFFSET 22.0902 0.085362 1.02216
              CHANNELS 3 Zrotation Xrotation Yrotation
              End Site
              {
                OFFSET 13.419 -0.6 1.50291
              }
            }
          }
        }
      }
      JOINT Head
      {
        OFFSET 0 8.73416 0.011341
        CHANNELS 3 Zrotation Xrotation Yrotation
        End Site
        {
          OFFSET -0.29 12.7742 2.51395
        }
      }
    }
  }
  JOINT RightUpLeg
  {
    OFFSET -8.9458 -8.66707 0.101652
    CHANNELS 3 Zrotation Xrotation Yrotation
    JOINT RightLeg
    {
      OFFSET 0 -44.4227 1.3727
      CHANNELS 3 Zrotation Xrotation Yrotation
      JOINT RightFoot
      {
        OFFSET 0.253549 -42.0924 -1.46059
        CHANNELS 3 Zrotation Xrotation Yrotation
        JOINT RightToes
        {
          OFFSET 0.04 -4.41509 8.4991
          CHANNELS 3 Zrotation Xrotation Yrotation
          End Site
          {
            OFFSET -0.08 -0.137448 9.77979
          }
        }
      }
    }
  }
}
MOTION
Frames:	16
Frame Time:	0.0333333
86.3126 13.2624 10.5776 -62.0092 20.6039 -83.8896 11.9278 -53.7449 2.45741 0.85788 47.75 7.21249 -1.52141 23.0224 0.252157 -1.55846e-009 8.75107e-006 -1.47605e-008 4.97678 61.7037 -1.60161 1.88416 24.7601 2.94809 18.4949 1.83176 2.92792 30.6776 32.2316 31.6572 3.45076 20.7694 21.3802 -57.2088 -0.25585 13.4675 -12.8286 1.43558 -3.72201 -70.23 -2.17186 -3.11176 46.0726 57.774 -62.2254 5.82328 9.61819 -0.917488 2.44094 -4.13534 2.98826 -82.8912 -81.4525 -95.4355 -179.203 44.3729 171.854 6.87248 9.09633 -1.06425 0.0462048 0.00053089 0.662642 
86.5231 13.1663 10.8113 -61.9595 21.6801 -83.9263 13.7968 -53.9068 4.31403 0.79422 47.6382 5.96762 -0.919132 22.4217 0.0901348 -1.55846e-009 8.75107e-006 -1.47605e-008 5.27028 62.1289 -1.82879 2.33781 24.8854 2.83077 18.6322 1.84536 2.94935 28.4233 33.1551 33.3105 3.88707 19.6228 21.3896 -58.6315 -0.520281 13.3906 -12.8997 1.43711 -3.6915 -70.937 -2.33388 -3.84565 43.6988 58.2428 -59.3254 5.82328 9.61819 -0.917488 1.97113 -4.02761 3.5268 -69.3139 -81.2375 -82.4711 -179.277 41.4061 172.87 6.39013 7.2047 -0.904072 0.0462048 0.00053089 0.662642 
86.6553 13.1884 11.0695 -60.7722 22.004 -84.437 14.7774 -54.7953 6.00274 0.712987 47.2576 4.5056 -0.856912 21.8151 0.0728112 -1.55846e-009 8.75107e-006 -1.47605e-008 5.54236 61.6133 -2.284 2.46279 24.8714 2.45361 18.6143 1.83646 2.91831 27.3644 33.1118 34.5684 4.03147 19.972 20.9993 -59.3015 -0.666801 13.3913 -12.9392 1.4286 -3.63768 -71.3235 -2.15104 -4.57028 40.3145 58.4834 -55.401 5.82328 9.61819 -0.917488 1.63761 -4.32388 4.0105 -64.2594 -80.9408 -77.4503 -179.367 40.3493 174.971 5.29588 4.10428 -0.638932 0.0462048 0.00053089 0.662642 
86.7355 13.3101 11.1333 -60.1743 21.9479 -84.6572 15.6237 -55.0902 7.87586 0.662323 46.9244 3.61573 -1.96885 22.3878 0.365458 -1.55846e-009 8.75107e-006 -1.47605e-008 5.85289 61.54 -2.66379 2.62655 24.7238 2.21332 18.454 1.81601 2.87497 27.9144 32.2792 34.7054 4.19877 21.2072 20.2509 -59.9054 -0.861551 13.4974 -12.9368 1.41078 -3.54952 -71.3781 -0.927815 -5.56537 35.7881 58.6134 -50.1521 5.82328 9.61819 -0.917488 1.541 -4.84032 4.15571 -62.2172 -80.7311 -75.4782 -179.409 40.4055 175.809 4.66683 1.49675 -0.482926 0.0462048 0.00053089 0.662642 
86.5964 13.4407 10.9573 -60.1375 21.59 -84.5372 16.34 -55.2736 9.84136 0.651977 47.4349 3.27757 -2.84888 22.5527 0.598094 -1.55846e-009 8.75107e-006 -1.47605e-008 6.44609 61.8085 -3.0658 2.859 24.3214 2.15236 18.0443 1.78857 2.86199 30.7466 30.0693 33.3379 4.87211 23.5074 18.7129 -61.2467 -1.20279 13.5678 -12.8444 1.37956 -3.42265 -71.2582 0.190844 -7.01843 30.7518 59.8564 -44.4429 5.82328 9.61819 -0.917488 1.65404 -5.35565 3.83464 -62.8354 -80.7715 -75.9374 -179.372 40.1088 174.98 5.39285 -0.125365 -0.476674 0.0462048 0.00053089 0.662642 
86.0277 13.6235 10.7041 -58.7255 20.3434 -84.6099 15.8097 -57.4758 11.1809 0.624938 49.5862 2.49058 -2.80328 18.3444 0.512896 -1.55846e-009 8.75107e-006 -1.47605e-008 7.2599 60.7806 -3.86256 2.88071 23.4713 1.77289 17.6142 1.7591 2.84485 35.6396 25.465 30.8962 6.2087 28.1133 16.0438 -63.0347 -1.5856 13.5302 -12.9907 1.3537 -3.24856 -70.9921 -2.47554 -8.71968 27.3577 64.9144 -41.1336 5.82328 9.61819 -0.917488 1.74913 -5.86356 3.14779 -75.5724 -81.021 -87.1402 -179.361 38.7597 174.351 6.64777 -1.50682 -0.489453 0.0462048 0.00053089 0.662642 
85.0972 14.0081 10.4804 -55.6969 18.018 -84.8125 13.6492 -61.9467 11.7723 0.62043 53.571 1.43215 -3.72178 9.17831 0.452966 -1.55846e-009 8.75107e-006 -1.47605e-008 7.91616 58.1658 -4.92575 2.5961 22.4084 0.874384 17.9858 1.75932 2.75778 40.198 19.5121 28.5179 7.94252 34.0667 12.8337 -64.3994 -1.83341 13.4253 -13.9773 1.37131 -3.04428 -69.9677 -6.97737 -10.4031 24.7281 71.4248 -38.7677 5.82328 9.61819 -0.917488 1.72625 -6.50803 2.21481 -96.9609 -80.0985 -105.602 -179.396 36.9198 174.883 7.06461 -3.19529 -0.420262 0.0462048 0.00053089 0.662642 
84.1215 14.6214 10.2199 -53.589 15.4574 -84.6876 11.6653 -66.0813 13.011 0.777677 59.3412 1.70266 -6.91584 -0.285138 0.427308 -1.55846e-009 8.75107e-006 -1.47605e-008 8.43924 55.9399 -5.83236 2.09922 21.8975 0.0363518 19.6528 1.81423 2.59744 42.2283 14.8232 26.8302 9.60291 38.4878 10.0623 -65.1996 -1.92539 13.2811 -16.2263 1.46975 -2.88557 -67.5826 -10.7867 -12.2403 21.0362 77.056 -35.0013 5.82328 9.61819 -0.917488 1.68472 -7.19613 1.00481 -105.298 -78.6952 -111.174 -179.427 35.3044 175.492 6.53968 -5.33363 -0.291049 0.0462048 0.00053089 0.662642 
83.2982 15.3616 9.85271 -54.0656 13.5502 -84.4866 12.3983 -67.947 16.7066 1.31453 66.7945 4.17541 -9.86822 -5.94417 0.183111 -1.55846e-009 8.75107e-006 -1.47605e-008 8.95671 55.5224 -6.26738 1.49009 22.4275 -0.140204 22.0289 1.89722 2.41053 42.4739 11.2509 25.8171 11.3684 41.5086 7.4336 -66.0757 -2.00017 13.0862 -19.7321 1.66796 -2.84896 -64.0795 -13.7314 -14.7248 10.6012 81.8944 -24.1362 5.82328 9.61819 -0.917488 1.64189 -7.4615 -0.456921 -95.7132 -78.7746 -100.114 -179.424 33.9736 175.233 6.01293 -8.12256 -0.149824 0.0462048 0.00053089 0.662642 
82.4641 16.2423 9.43263 -55.4897 12.171 -84.7254 15.1853 -68.8492 21.9297 2.52868 75.0486 7.82981 -9.53534 -7.84073 0.017775 -1.55846e-009 8.75107e-006 -1.47605e-008 8.99441 55.7213 -6.02078 1.11323 23.6686 0.0189591 24.3556 1.96876 2.21781 42.8462 6.6382 25.5322 13.8926 45.6794 3.65458 -67.2135 -2.15772 12.9273 -24.0967 1.95046 -2.91796 -59.7253 -15.2421 -17.7867 -22.421 83.9822 9.52622 5.82328 9.61819 -0.917488 1.55186 -6.92275 -1.82519 -76.7752 -78.8519 -80.2987 -179.417 32.656 174.823 5.97982 -11.7084 0.0165281 0.0462048 0.00053089 0.662642 
81.4845 17.3198 9.03684 -55.8354 10.8569 -85.3702 18.6354 -70.9409 27.3733 6.53733 83.3943 7.82837 -6.69052 -7.95708 0.0136757 -1.55846e-009 8.75107e-006 -1.47605e-008 8.25689 55.1238 -5.30901 1.06304 24.9325 -0.0594775 26.768 2.01986 1.97134 43.8381 0.466253 26.0153 17.4707 51.852 -1.75488 -67.9528 -2.35046 12.9572 -28.8229 2.27848 -3.01763 -54.2733 -15.036 -20.5088 -46.7975 81.5958 34.2824 5.82328 9.61819 -0.917488 1.48277 -5.75852 -2.64931 -62.4814 -77.8948 -64.8941 -179.43 31.363 174.986 6.24195 -15.7806 0.226032 0.0462048 0.00053089 0.662642 
80.4946 18.4669 8.6736 -55.765 9.72345 -86.08 23.1085 -73.681 33.1553 157.733 87.8281 -141.358 -4.16686 -7.88178 0.0238087 -1.55846e-009 8.75107e-006 -1.47605e-008 7.43588 54.531 -4.74637 0.983873 25.9309 -0.312436 29.5906 2.0478 1.62776 44.7994 -5.6676 27.0411 21.8827 58.2404 -8.12363 -67.9499 -2.50008 13.1764 -33.5256 2.61407 -3.0952 -47.7753 -13.6045 -22.1901 -49.1584 77.9659 36.4415 5.82328 9.61819 -0.917488 1.47261 -4.50544 -2.8414 -51.8453 -76.13 -53.3472 -179.443 30.3161 175.238 6.61286 -19.9589 0.475899 0.0462048 0.00053089 0.662642 
79.6356 19.4671 8.2993 -57.0142 9.23398 -86.8388 28.4063 -74.9708 38.621 175.431 78.9647 -157.861 -3.05169 -8.18855 0.0172456 -1.55846e-009 8.75107e-006 -1.47605e-008 7.29445 55.4844 -4.52831 0.626498 26.7885 -0.279404 32.3294 2.04742 1.26264 45.4092 -10.1703 28.2489 26.5562 62.7222 -14.4792 -67.8419 -2.62541 13.3965 -37.7891 2.90862 -3.10949 -40.6971 -10.199 -23.107 -43.6148 73.4768 30.316 5.82328 9.61819 -0.917488 1.44676 -3.5384 -2.7793 -38.9904 -72.9502 -40.5807 -179.436 29.592 174.969 6.93509 -24.1138 0.748638 0.0462048 0.00053089 0.662642 
78.9049 20.254 7.86184 -59.2875 9.12861 -87.7732 32.3729 -74.7627 41.9328 177.444 69.7211 -159.152 -2.19458 -8.92952 0.0141348 -1.55846e-009 8.75107e-006 -1.47605e-008 7.37978 57.6139 -4.27001 0.0719718 27.6428 0.157324 34.2509 2.03289 0.997703 45.9889 -12.8435 29.4612 31.2066 64.8821 -20.5657 -68.297 -2.80514 13.498 -41.0906 3.10589 -3.03967 -33.6799 -4.20963 -24.1361 -35.9035 67.4879 21.612 5.82328 9.61819 -0.917488 1.43457 -2.97173 -2.9037 -27.9173 -68.6345 -30.1714 -179.415 29.0552 174.37 6.90585 -27.9354 0.96615 0.0462048 0.00053089 0.662642 
78.1926 20.875 7.3897 -60.7591 8.52181 -88.8102 34.023 -75.0444 43.1068 178.221 60.3102 -160.153 -0.76367 -10.3577 0.0310699 -1.55846e-009 8.75107e-006 -1.47605e-008 6.62532 59.1103 -3.59752 -0.64502 28.5696 0.671024 35.3414 2.02178 0.850765 46.8721 -14.526 30.5855 35.294 66.0973 -25.7245 -69.0927 -3.06103 13.586 -43.1626 3.19264 -2.9197 -27.1533 3.36882 -25.7346 -27.7961 60.7807 11.6737 5.82328 9.61819 -0.917488 1.56421 -2.79399 -3.27309 -22.325 -65.218 -24.5708 -179.401 28.4068 173.925 6.543 -31.1551 1.07964 0.0462048 0.00053089 0.662642 
77.2563 21.3019 6.97338 -60.7927 7.29147 -89.8834 32.2692 -76.4521 41.6464 178.527 50.5705 -160.452 0.586939 -13.3444 0.0958342 -1.55846e-009 8.75107e-006 -1.47605e-008 5.34451 59.193 -2.79182 -1.47127 29.535 0.973403 35.9974 2.01458 0.764373 48.1317 -16.0649 31.3869 37.0135 68.1912 -27.6087 -69.7529 -3.34941 13.762 -44.3062 3.20762 -2.79158 -21.7605 9.95552 -27.5541 -23.1237 54.6088 5.4736 5.82328 9.61819 -0.917488 1.74619 -2.84078 -3.61665 -20.5856 -63.5044 -21.8481 -179.405 27.2998 173.863 6.20943 -34.2501 1.17319 0.0462048 0.00053089 0.662642 
